<?xml version="1.0" standalone="no"?>
<!DOCTYPE svg PUBLIC "-//W3C//DTD SVG 20010904//EN"
 "http://www.w3.org/TR/2001/REC-SVG-20010904/DTD/svg10.dtd">
<svg version="1.0" xmlns="http://www.w3.org/2000/svg"
 width="680.000000pt" height="680.000000pt" viewBox="0 0 680.000000 680.000000"
 preserveAspectRatio="xMidYMid meet">
<metadata>
Created by potrace 1.11, written by Peter Selinger 2001-2013
</metadata>
<g transform="translate(0.000000,680.000000) scale(0.100000,-0.100000)"
fill="#000000" stroke="none">
<path d="M2919 6708 c-1 -1 -2 -87 -3 -190 l-1 -188 25 -1 c73 -4 235 -18 270
-24 14 -2 45 -7 70 -10 40 -5 71 -10 185 -31 17 -2 94 -20 171 -39 390 -96
767 -262 1109 -488 347 -230 626 -496 928 -887 22 -28 144 -215 185 -282 70
-117 188 -358 245 -503 48 -122 122 -341 132 -393 1 -9 10 -44 18 -77 9 -33
18 -73 22 -90 32 -175 44 -250 50 -303 3 -35 8 -72 10 -83 8 -41 19 -269 18
-392 l0 -127 191 2 191 3 -1 160 c-1 202 -15 411 -39 555 -2 14 -7 45 -10 70
-10 70 -54 275 -82 380 -330 1249 -1284 2284 -2503 2715 -262 93 -601 173
-845 199 -27 3 -68 8 -90 10 -65 8 -245 18 -246 14z"/>
<path d="M2919 6058 c-5 -12 -3 -370 1 -373 4 -2 33 -6 66 -9 142 -13 185 -19
284 -36 191 -34 234 -45 410 -102 867 -281 1566 -967 1867 -1833 61 -176 121
-438 138 -605 2 -25 8 -74 11 -110 4 -36 8 -138 8 -228 l1 -162 190 2 190 3
-1 170 c-1 158 -10 340 -19 375 -2 8 -7 39 -10 69 -4 30 -9 63 -11 75 -2 12
-11 57 -19 101 -100 525 -356 1061 -705 1475 -450 535 -1037 910 -1699 1086
-140 37 -252 58 -477 89 -49 7 -224 17 -225 13z"/>
<path d="M2556 5383 c-1 -1 -26 -4 -56 -7 -172 -15 -382 -60 -570 -123 -74
-24 -148 -51 -165 -58 -360 -163 -583 -309 -820 -534 -102 -97 -107 -74 45
-226 l133 -134 96 90 c214 203 483 371 756 474 116 43 324 98 440 115 44 6 89
13 100 15 11 2 39 4 63 4 l42 1 0 193 0 193 -31 -1 c-17 0 -32 -1 -33 -2z"/>
<path d="M2917 5382 c-2 -4 -3 -90 -3 -192 l1 -185 65 -7 c608 -68 1127 -338
1507 -785 275 -322 470 -749 519 -1138 3 -22 8 -51 11 -65 4 -19 14 -318 13
-397 0 -10 45 -13 190 -13 l190 0 1 63 c1 111 -2 261 -6 302 -3 22 -8 63 -11
90 -8 78 -42 268 -60 332 -8 32 -17 68 -20 80 -2 12 -20 66 -39 120 -20 54
-37 103 -38 108 -7 27 -67 161 -114 252 -343 670 -962 1168 -1684 1356 -85 22
-120 30 -199 43 -14 3 -47 9 -75 14 -27 5 -84 12 -125 16 -41 3 -85 7 -97 9
-13 2 -24 1 -26 -3z"/>
<path d="M2675 4612 c-175 -20 -369 -131 -481 -277 -64 -82 -123 -212 -140
-308 -3 -18 -7 -356 -9 -752 -2 -396 -4 -724 -5 -730 0 -5 -19 -30 -41 -55
-95 -106 -181 -264 -218 -401 -29 -107 -33 -132 -36 -256 -3 -134 8 -218 44
-329 113 -354 417 -628 776 -699 449 -88 906 133 1114 540 39 75 77 176 86
226 3 13 9 46 14 72 15 83 13 259 -5 353 -33 178 -114 350 -225 475 l-58 66
-4 749 c-3 831 1 774 -71 926 -94 198 -296 352 -520 394 -37 7 -178 11 -221 6z
m163 -316 c50 -6 155 -55 194 -90 46 -41 95 -113 119 -173 l23 -58 2 -792 1
-793 29 -22 c86 -65 180 -191 222 -298 72 -180 62 -402 -25 -575 -98 -194
-280 -334 -494 -382 -19 -4 -86 -7 -149 -7 -92 0 -130 4 -190 23 -196 60 -351
190 -439 367 -112 227 -96 489 42 702 43 65 120 150 163 178 l21 14 0 783 c0
770 1 783 22 844 53 157 179 260 344 282 29 4 57 6 62 5 6 -2 29 -5 53 -8z"/>
<path d="M2745 3299 c-27 -4 -61 -11 -75 -17 -31 -12 -97 -83 -112 -120 -7
-18 -12 -165 -13 -442 -2 -228 -3 -418 -4 -421 0 -3 -22 -21 -48 -40 -117 -83
-189 -178 -229 -299 -27 -82 -25 -226 5 -313 106 -314 475 -455 761 -289 25
14 51 31 57 38 7 7 23 21 36 31 26 20 97 115 115 153 33 69 49 140 50 224 2
186 -84 345 -248 457 l-50 34 0 416 0 415 -26 52 c-44 89 -126 134 -219 121z"/>
<path d="M609 4272 c-118 -169 -214 -340 -278 -497 -18 -44 -37 -89 -42 -100
-50 -114 -126 -420 -145 -585 -3 -30 -8 -64 -11 -75 -7 -33 -13 -383 -7 -400
5 -13 35 -15 193 -15 l186 0 0 133 c0 127 9 268 20 332 55 305 98 440 210 670
41 83 103 193 138 246 l64 96 -138 136 -137 136 -53 -77z"/>
<path d="M164 2298 c-5 -8 28 -172 55 -272 60 -218 188 -503 315 -701 90 -141
233 -319 349 -437 l56 -57 136 136 136 137 -38 36 c-210 200 -400 490 -517
788 -31 79 -80 233 -90 282 -17 86 -19 90 -40 91 -113 4 -359 3 -362 -3z"/>
<path d="M5005 2302 c-17 -2 -23 -15 -33 -68 -22 -115 -100 -334 -171 -478
-108 -219 -215 -373 -387 -562 -44 -48 -80 -89 -82 -93 -1 -3 58 -66 131 -139
l134 -133 92 98 c101 107 261 315 333 433 162 266 269 536 337 853 l19 87 -21
1 c-92 2 -336 3 -352 1z"/>
<path d="M1302 777 c-72 -73 -132 -135 -132 -139 0 -14 275 -189 387 -246 219
-111 462 -198 664 -237 25 -5 122 -22 163 -29 31 -6 117 -15 184 -21 l52 -4
-2 192 -3 192 -40 3 c-40 3 -202 26 -260 37 -243 47 -557 176 -777 320 -54 36
-100 65 -101 65 -1 0 -62 -60 -135 -133z"/>
<path d="M4055 885 c-94 -74 -351 -208 -516 -269 -103 -38 -256 -80 -329 -91
-25 -4 -47 -8 -50 -10 -3 -2 -33 -7 -65 -10 -33 -4 -63 -9 -66 -11 -3 -1 -29
-4 -57 -5 -29 -2 -53 -5 -53 -8 -1 -3 -2 -90 -3 -194 l-1 -187 60 6 c33 3 76
7 95 10 19 3 55 7 80 10 76 9 274 53 381 85 262 77 565 228 778 384 l63 46
-135 135 c-74 73 -139 134 -143 134 -5 -1 -22 -12 -39 -25z"/>
</g>
</svg>
